<mxfile host="app.diagrams.net" modified="2024-02-25T03:09:29.517Z" agent="Mozilla/5.0 (Windows NT 10.0; Win64; x64) AppleWebKit/537.36 (KHTML, like Gecko) Chrome/122.0.0.0 Safari/537.36" etag="8eDMU9ZZxRWGvi6XBWx-" version="23.1.5" type="github">
  <diagram name="Page-1" id="tfSkzFUNUCBMs3AfxPGM">
    <mxGraphModel dx="1235" dy="767" grid="1" gridSize="10" guides="1" tooltips="1" connect="1" arrows="1" fold="1" page="1" pageScale="1" pageWidth="827" pageHeight="1169" math="0" shadow="0">
      <root>
        <mxCell id="0" />
        <mxCell id="1" parent="0" />
        <mxCell id="OdLloOmKYs9hcIhr5yqu-1" value="Product" style="swimlane;childLayout=stackLayout;horizontal=1;startSize=50;horizontalStack=0;rounded=1;fontSize=15;fontStyle=0;strokeWidth=2;resizeParent=0;resizeLast=1;shadow=0;dashed=0;align=center;arcSize=4;whiteSpace=wrap;html=1;" vertex="1" parent="1">
          <mxGeometry x="130" y="250" width="160" height="160" as="geometry" />
        </mxCell>
        <mxCell id="OdLloOmKYs9hcIhr5yqu-2" value="&lt;b style=&quot;font-size: 15px;&quot;&gt;+id&lt;br style=&quot;font-size: 15px;&quot;&gt;&lt;/b&gt;+name&lt;br style=&quot;font-size: 15px;&quot;&gt;+&lt;i style=&quot;font-size: 15px;&quot;&gt;supplier_id&lt;/i&gt;&lt;br style=&quot;font-size: 15px;&quot;&gt;+price&lt;br&gt;+ min_qty" style="align=left;strokeColor=none;fillColor=none;spacingLeft=4;fontSize=15;verticalAlign=top;resizable=0;rotatable=0;part=1;html=1;" vertex="1" parent="OdLloOmKYs9hcIhr5yqu-1">
          <mxGeometry y="50" width="160" height="110" as="geometry" />
        </mxCell>
        <mxCell id="OdLloOmKYs9hcIhr5yqu-16" style="rounded=0;orthogonalLoop=1;jettySize=auto;html=1;fontSize=15;" edge="1" parent="1" source="OdLloOmKYs9hcIhr5yqu-3" target="OdLloOmKYs9hcIhr5yqu-8">
          <mxGeometry relative="1" as="geometry" />
        </mxCell>
        <mxCell id="OdLloOmKYs9hcIhr5yqu-3" value="User" style="swimlane;childLayout=stackLayout;horizontal=1;startSize=50;horizontalStack=0;rounded=1;fontSize=15;fontStyle=0;strokeWidth=2;resizeParent=0;resizeLast=1;shadow=0;dashed=0;align=center;arcSize=4;whiteSpace=wrap;html=1;" vertex="1" parent="1">
          <mxGeometry x="40" y="610" width="160" height="150" as="geometry" />
        </mxCell>
        <mxCell id="OdLloOmKYs9hcIhr5yqu-4" value="&lt;b style=&quot;font-size: 15px;&quot;&gt;+id&lt;br style=&quot;font-size: 15px;&quot;&gt;&lt;/b&gt;+full_name&lt;br style=&quot;font-size: 15px;&quot;&gt;+email&lt;br style=&quot;font-size: 15px;&quot;&gt;+password&lt;br style=&quot;font-size: 15px;&quot;&gt;&lt;i style=&quot;font-size: 15px;&quot;&gt;+role_id&lt;/i&gt;" style="align=left;strokeColor=none;fillColor=none;spacingLeft=4;fontSize=15;verticalAlign=top;resizable=0;rotatable=0;part=1;html=1;" vertex="1" parent="OdLloOmKYs9hcIhr5yqu-3">
          <mxGeometry y="50" width="160" height="100" as="geometry" />
        </mxCell>
        <mxCell id="OdLloOmKYs9hcIhr5yqu-5" value="Supplier" style="swimlane;childLayout=stackLayout;horizontal=1;startSize=35;horizontalStack=0;rounded=1;fontSize=15;fontStyle=0;strokeWidth=2;resizeParent=0;resizeLast=1;shadow=0;dashed=0;align=center;arcSize=4;whiteSpace=wrap;html=1;" vertex="1" parent="1">
          <mxGeometry x="580" y="270" width="160" height="140" as="geometry" />
        </mxCell>
        <mxCell id="OdLloOmKYs9hcIhr5yqu-6" value="&lt;b style=&quot;font-size: 15px;&quot;&gt;+id&lt;br style=&quot;font-size: 15px;&quot;&gt;&lt;/b&gt;+full_name&lt;br style=&quot;font-size: 15px;&quot;&gt;+adress&lt;br style=&quot;font-size: 15px;&quot;&gt;+email&lt;br style=&quot;font-size: 15px;&quot;&gt;+phone" style="align=left;strokeColor=none;fillColor=none;spacingLeft=4;fontSize=15;verticalAlign=top;resizable=0;rotatable=0;part=1;html=1;" vertex="1" parent="OdLloOmKYs9hcIhr5yqu-5">
          <mxGeometry y="35" width="160" height="105" as="geometry" />
        </mxCell>
        <mxCell id="OdLloOmKYs9hcIhr5yqu-7" value="Role" style="swimlane;childLayout=stackLayout;horizontal=1;startSize=50;horizontalStack=0;rounded=1;fontSize=15;fontStyle=0;strokeWidth=2;resizeParent=0;resizeLast=1;shadow=0;dashed=0;align=center;arcSize=4;whiteSpace=wrap;html=1;" vertex="1" parent="1">
          <mxGeometry x="40" y="430" width="160" height="120" as="geometry" />
        </mxCell>
        <mxCell id="OdLloOmKYs9hcIhr5yqu-8" value="&lt;b style=&quot;font-size: 15px;&quot;&gt;+id&lt;br style=&quot;font-size: 15px;&quot;&gt;&lt;/b&gt;+name&lt;br style=&quot;font-size: 15px;&quot;&gt;+description" style="align=left;strokeColor=none;fillColor=none;spacingLeft=4;fontSize=15;verticalAlign=top;resizable=0;rotatable=0;part=1;html=1;" vertex="1" parent="OdLloOmKYs9hcIhr5yqu-7">
          <mxGeometry y="50" width="160" height="70" as="geometry" />
        </mxCell>
        <mxCell id="OdLloOmKYs9hcIhr5yqu-18" style="rounded=0;orthogonalLoop=1;jettySize=auto;html=1;fontSize=15;" edge="1" parent="1" source="OdLloOmKYs9hcIhr5yqu-9" target="OdLloOmKYs9hcIhr5yqu-2">
          <mxGeometry relative="1" as="geometry" />
        </mxCell>
        <mxCell id="OdLloOmKYs9hcIhr5yqu-9" value="OrderLine" style="swimlane;childLayout=stackLayout;horizontal=1;startSize=50;horizontalStack=0;rounded=1;fontSize=15;fontStyle=0;strokeWidth=2;resizeParent=0;resizeLast=1;shadow=0;dashed=0;align=center;arcSize=4;whiteSpace=wrap;html=1;" vertex="1" parent="1">
          <mxGeometry x="360" y="380" width="160" height="140" as="geometry" />
        </mxCell>
        <mxCell id="OdLloOmKYs9hcIhr5yqu-10" value="&lt;b style=&quot;font-size: 15px;&quot;&gt;+id&lt;br style=&quot;font-size: 15px;&quot;&gt;&lt;/b&gt;+&lt;i style=&quot;font-size: 15px;&quot;&gt;product_id&lt;/i&gt;&lt;br style=&quot;font-size: 15px;&quot;&gt;+order&lt;i style=&quot;font-size: 15px;&quot;&gt;_id&lt;/i&gt;&lt;br style=&quot;font-size: 15px;&quot;&gt;+quantity" style="align=left;strokeColor=none;fillColor=none;spacingLeft=4;fontSize=15;verticalAlign=top;resizable=0;rotatable=0;part=1;html=1;" vertex="1" parent="OdLloOmKYs9hcIhr5yqu-9">
          <mxGeometry y="50" width="160" height="90" as="geometry" />
        </mxCell>
        <mxCell id="OdLloOmKYs9hcIhr5yqu-11" value="Orders" style="swimlane;childLayout=stackLayout;horizontal=1;startSize=50;horizontalStack=0;rounded=1;fontSize=15;fontStyle=0;strokeWidth=2;resizeParent=0;resizeLast=1;shadow=0;dashed=0;align=center;arcSize=4;whiteSpace=wrap;html=1;" vertex="1" parent="1">
          <mxGeometry x="360" y="560" width="160" height="100" as="geometry" />
        </mxCell>
        <mxCell id="OdLloOmKYs9hcIhr5yqu-12" value="&lt;b style=&quot;font-size: 15px;&quot;&gt;+id&lt;br style=&quot;font-size: 15px;&quot;&gt;&lt;/b&gt;+sum" style="align=left;strokeColor=none;fillColor=none;spacingLeft=4;fontSize=15;verticalAlign=top;resizable=0;rotatable=0;part=1;html=1;" vertex="1" parent="OdLloOmKYs9hcIhr5yqu-11">
          <mxGeometry y="50" width="160" height="50" as="geometry" />
        </mxCell>
        <mxCell id="OdLloOmKYs9hcIhr5yqu-20" style="rounded=0;orthogonalLoop=1;jettySize=auto;html=1;fontSize=15;" edge="1" parent="1" source="OdLloOmKYs9hcIhr5yqu-13" target="OdLloOmKYs9hcIhr5yqu-12">
          <mxGeometry relative="1" as="geometry" />
        </mxCell>
        <mxCell id="OdLloOmKYs9hcIhr5yqu-21" style="rounded=0;orthogonalLoop=1;jettySize=auto;html=1;fontSize=15;" edge="1" parent="1" source="OdLloOmKYs9hcIhr5yqu-13" target="OdLloOmKYs9hcIhr5yqu-4">
          <mxGeometry relative="1" as="geometry" />
        </mxCell>
        <mxCell id="OdLloOmKYs9hcIhr5yqu-13" value="Invoice" style="swimlane;childLayout=stackLayout;horizontal=1;startSize=50;horizontalStack=0;rounded=1;fontSize=15;fontStyle=0;strokeWidth=2;resizeParent=0;resizeLast=1;shadow=0;dashed=0;align=center;arcSize=4;whiteSpace=wrap;html=1;" vertex="1" parent="1">
          <mxGeometry x="560" y="630" width="180" height="190" as="geometry" />
        </mxCell>
        <mxCell id="OdLloOmKYs9hcIhr5yqu-14" value="&lt;b style=&quot;font-size: 15px;&quot;&gt;+id&lt;br style=&quot;font-size: 15px;&quot;&gt;&lt;/b&gt;+date&lt;br style=&quot;font-size: 15px;&quot;&gt;+order&lt;i style=&quot;font-size: 15px;&quot;&gt;_id&lt;/i&gt;&lt;br style=&quot;font-size: 15px;&quot;&gt;+&lt;i style=&quot;font-size: 15px;&quot;&gt;customer_id&lt;/i&gt;&lt;br style=&quot;font-size: 15px;&quot;&gt;+&lt;i style=&quot;font-size: 15px;&quot;&gt;user_id&lt;/i&gt;&lt;br style=&quot;font-size: 15px;&quot;&gt;&lt;i style=&quot;font-size: 15px;&quot;&gt;+supplier_id&lt;br&gt;+ tax&lt;br&gt;&lt;/i&gt;" style="align=left;strokeColor=none;fillColor=none;spacingLeft=4;fontSize=15;verticalAlign=top;resizable=0;rotatable=0;part=1;html=1;" vertex="1" parent="OdLloOmKYs9hcIhr5yqu-13">
          <mxGeometry y="50" width="180" height="140" as="geometry" />
        </mxCell>
        <mxCell id="OdLloOmKYs9hcIhr5yqu-17" style="rounded=0;orthogonalLoop=1;jettySize=auto;html=1;fontSize=15;" edge="1" parent="1" source="OdLloOmKYs9hcIhr5yqu-2" target="OdLloOmKYs9hcIhr5yqu-6">
          <mxGeometry relative="1" as="geometry" />
        </mxCell>
        <mxCell id="OdLloOmKYs9hcIhr5yqu-19" style="rounded=0;orthogonalLoop=1;jettySize=auto;html=1;entryX=0.5;entryY=0;entryDx=0;entryDy=0;fontSize=15;" edge="1" parent="1" source="OdLloOmKYs9hcIhr5yqu-10" target="OdLloOmKYs9hcIhr5yqu-11">
          <mxGeometry relative="1" as="geometry">
            <mxPoint x="530" y="520" as="targetPoint" />
          </mxGeometry>
        </mxCell>
        <mxCell id="OdLloOmKYs9hcIhr5yqu-22" style="rounded=0;orthogonalLoop=1;jettySize=auto;html=1;entryX=0.428;entryY=1.007;entryDx=0;entryDy=0;entryPerimeter=0;fontSize=15;" edge="1" parent="1" source="OdLloOmKYs9hcIhr5yqu-13" target="OdLloOmKYs9hcIhr5yqu-6">
          <mxGeometry relative="1" as="geometry" />
        </mxCell>
        <mxCell id="OdLloOmKYs9hcIhr5yqu-25" style="rounded=0;orthogonalLoop=1;jettySize=auto;html=1;entryX=1;entryY=0.75;entryDx=0;entryDy=0;fontSize=15;" edge="1" parent="1" source="OdLloOmKYs9hcIhr5yqu-23" target="OdLloOmKYs9hcIhr5yqu-4">
          <mxGeometry relative="1" as="geometry" />
        </mxCell>
        <mxCell id="OdLloOmKYs9hcIhr5yqu-23" value="ConnectionHistory" style="swimlane;childLayout=stackLayout;horizontal=1;startSize=50;horizontalStack=0;rounded=1;fontSize=15;fontStyle=0;strokeWidth=2;resizeParent=0;resizeLast=1;shadow=0;dashed=0;align=center;arcSize=4;whiteSpace=wrap;html=1;" vertex="1" parent="1">
          <mxGeometry x="290" y="810" width="180" height="150" as="geometry" />
        </mxCell>
        <mxCell id="OdLloOmKYs9hcIhr5yqu-24" value="&lt;b style=&quot;font-size: 15px;&quot;&gt;+id&lt;br style=&quot;font-size: 15px;&quot;&gt;&lt;/b&gt;+&lt;i style=&quot;font-size: 15px;&quot;&gt;user_id&lt;/i&gt;&lt;br style=&quot;font-size: 15px;&quot;&gt;+login_date&lt;br style=&quot;font-size: 15px;&quot;&gt;+logout_date&lt;br&gt;+onsite_time" style="align=left;strokeColor=none;fillColor=none;spacingLeft=4;fontSize=15;verticalAlign=top;resizable=0;rotatable=0;part=1;html=1;" vertex="1" parent="OdLloOmKYs9hcIhr5yqu-23">
          <mxGeometry y="50" width="180" height="100" as="geometry" />
        </mxCell>
      </root>
    </mxGraphModel>
  </diagram>
</mxfile>
